<svg xmlns="http://www.w3.org/2000/svg" width="680" height="480" viewBox="0 0 680 480" fill="none">
  <defs>
    <linearGradient id="g" x1="0" y1="0" x2="1" y2="1">
      <stop offset="0" stop-color="#6D7CFF" stop-opacity=".35"/>
      <stop offset="1" stop-color="#29D8A9" stop-opacity=".25"/>
    </linearGradient>
  </defs>
  <rect x="1" y="1" width="678" height="478" rx="20" fill="#0f1219" stroke="#1c2233"/>
  <rect x="20" y="24" width="640" height="60" rx="12" fill="url(#g)" opacity=".45"/>
  <rect x="20" y="100" width="420" height="22" rx="6" fill="#1a2236"/>
  <rect x="20" y="130" width="360" height="22" rx="6" fill="#1a2236"/>
  <rect x="20" y="176" width="640" height="110" rx="12" fill="#111728"/>
  <rect x="36" y="194" width="220" height="16" rx="6" fill="#263356"/>
  <rect x="36" y="218" width="180" height="16" rx="6" fill="#263356"/>
  <rect x="280" y="194" width="100" height="80" rx="10" fill="#6D7CFF" opacity=".35"/>
  <rect x="400" y="194" width="100" height="80" rx="10" fill="#29D8A9" opacity=".35"/>
  <rect x="520" y="194" width="120" height="80" rx="10" fill="#8993ff" opacity=".25"/>
  <rect x="20" y="304" width="300" height="22" rx="6" fill="#1a2236"/>
  <rect x="20" y="334" width="260" height="22" rx="6" fill="#1a2236"/>
  <rect x="20" y="370" width="640" height="90" rx="12" fill="#111728"/>
</svg>